<svg xmlns="http://www.w3.org/2000/svg" viewBox="0 0 311.54 70.13"><defs><style>.cls-1{fill:#fff;}</style></defs><title>资源 1</title><g id="图层_2" data-name="图层 2"><g id="图层_1-2" data-name="图层 1"><polygon class="cls-1" points="18.29 48.31 52.13 48.31 49.39 51.12 20.3 51.12 18.29 48.31"/><path class="cls-1" d="M35.06,38.88h2.52v1.58H32.47V38.88Zm0,1.8h2.52v.58H32.47v-.58Zm-.21-2.45h2.73v.51H32.47v-.51Zm-1.3,3.1a1.43,1.43,0,0,1-.5.5c-.22.07-.22,0-.22.15s0,.14-.14.21a.23.23,0,0,1-.15.07v-.93Zm-1.08-3.24a1.65,1.65,0,0,0,.72-.15c.22-.14.36-.43.29-.5s-.07-.29-.22-.36c-.36-.22-.5.14-.64.36s-.08.07-.15.07h0v.58Zm-.21-.58H30.82V48.17h1.44V37.51Zm.14-1.37H30.67c-.07,0-.07,0-.07.08v1c0,.08,0,.08.07.08H32.4c.07,0,.07,0,.07-.08v-1c0-.08,0-.08-.07-.08Zm-.86-1.72h.07c.21,0,.29.21.36.36a1,1,0,0,1,.07.36.39.39,0,0,1,.22.57c-.15.15,0,.29-.15.29H31c-.14,0,0-.14-.07-.29a.36.36,0,0,1,.21-.57v-.36c.08-.15.22-.36.44-.36Zm-1,3V38h-.36c-.29,0-.29-.36-.36-.44s-.29-.28-.36-.43,0-.07.07-.21a.34.34,0,0,1,.22-.08c.07.08.07.08.07,0h0c0,.08-.07.08-.07.15s.36.14.43.21.14.15.21.22Zm.07.79h-.43v.51h.43v-.51Zm0,.65H27.72v.43H30.6v-.43Zm0,.58H27.72v1.29H30.6V39.46Zm0,1.44H27.72v.43H30.6V40.9Zm-2.09.64c.15,0-.21.36-.43.44a.24.24,0,0,0-.14.07c-.08.07-.08.21-.15.21l-.07.08v-.8Zm-1.08-2.88H26.14v9.51h1.29V38.66Zm.15-1.29H26c-.07,0-.07,0-.07.07v.94a.07.07,0,0,0,.07.07h1.59l.07-.07v-.94a.07.07,0,0,0-.07-.07ZM23.33,39.1H22v9.07h1.23V39.6h.07v-.5Zm.07-1H22l-.07.07v.72A.07.07,0,0,0,22,39H23.4a.07.07,0,0,0,.07-.07v-.72l-.07-.07Zm-.72-1.37a.29.29,0,0,1,.29.14A.23.23,0,0,0,23,37a.81.81,0,0,0,.07.29c.15.07.22.21.07.43s0,.14,0,.21h0l-.5.08h0l-.43-.08h-.07c.07-.07.14-.14,0-.21s0-.36.14-.43a.73.73,0,0,1,.07-.29.29.29,0,0,1,.07-.15.27.27,0,0,1,.22-.14Zm3.24,2.09h-.29c-.21,0-.29-.15-.29-.36s-.36-.22-.36-.51a.28.28,0,0,1,.36-.21h0a.1.1,0,0,0,0,.14c0,.15.36.15.44.36s.07.22.07.29v.07h.07v.22Zm0,.07h-.29v.43h.29v-.43Zm0,.5H23.47v.44h2.45v-.44Zm3.82,2.16c-.08,0,.28.36.5.44s.07.07.14.07a.65.65,0,0,0,.08.21.21.21,0,0,0,.14.08v-.8Zm-3-5.68h.07c.22,0,.29.21.36.36v.28c.22.08.44.44.22.58s0,.14-.14.14h-.87c-.14,0-.07-.07-.14-.14-.22-.14,0-.5.14-.58a.7.7,0,0,1,.07-.28c.08-.15.15-.36.29-.36Zm.94,3h.29c.21,0,.28-.15.28-.36s.36-.22.36-.51a.27.27,0,0,0-.36-.21h0a.09.09,0,0,1,0,.14c0,.15-.36.15-.43.36s-.07.22-.07.29v.07h-.07v.22ZM25.92,40H23.47v.94h2.45V40Zm0,1.08H23.47v.43h2.45V41Zm0,1.3-.22-.22a1.13,1.13,0,0,1-.57-.43v-.07h.79v.72Zm-2.45,0a.5.5,0,0,1,.22-.22.77.77,0,0,0,.5-.43l.07-.07h-.79v.72Zm0-3.24v.14h.22a.56.56,0,0,0,.36-.14c.07-.08.14-.15.14-.22s-.07-.07-.14-.14,0-.08-.07-.15-.15-.14-.36-.14h0v.65Zm-1.58.21H21.6c-.22,0-.29-.21-.29-.36s-.29-.29-.36-.57a.19.19,0,0,1,.22-.22l.07.07a.11.11,0,0,0,0,.15c.07.07.43.14.5.36s.08.21.08.28v.08h.07v.21Zm0,1.73h-.36v.43h.36V41Zm0-1.66h-.36v.44h.36v-.44Zm-.07,4.83s-.36.14-.44.36a1.26,1.26,0,0,0-.07.36.92.92,0,0,0-.5.86,1,1,0,0,0,.07.43,1.75,1.75,0,0,0-.36.51c-.07.21-.07.86.07.86l1.23-.07V44.21Zm0,3.53H20.23v.43h1.59v-.43Zm14.76-6.41a1.78,1.78,0,0,0,.43.5c.29.07.21,0,.21.15s.08.14.15.21a.54.54,0,0,0,.21.07v-.93Zm1-3.24a1.68,1.68,0,0,1-.72-.15c-.21-.14-.28-.43-.21-.5s.07-.29.21-.36.44.14.65.36l.07.07h0v.58Zm.29-.58h1.44V48.17H37.87V37.51Zm-.21-1.37h1.8a.07.07,0,0,1,.07.08v1a.07.07,0,0,1-.07.08h-1.8a.08.08,0,0,1-.08-.08v-1a.08.08,0,0,1,.08-.08Zm.93-1.72h-.07a.38.38,0,0,0-.36.36,1,1,0,0,0-.07.36.39.39,0,0,0-.22.57c.15.15-.07.29.15.29H39.1c.14,0,0-.14.14-.29a.39.39,0,0,0-.22-.57,1,1,0,0,0-.07-.36c-.07-.15-.14-.36-.36-.36Zm1,3V38H40c.22,0,.29-.36.36-.44s.29-.28.29-.43.07-.07,0-.21a.4.4,0,0,0-.29-.08h0V37c0,.14-.29.14-.43.21s-.15.15-.15.22Zm-.07.79H40v.51h-.43v-.51Zm0,.65h2.88v.43H39.53v-.43Zm0,.58h2.88v1.29H39.53V39.46Zm0,1.44h2.88v.43H39.53V40.9Zm2.09.64c-.15,0,.21.36.43.44s.07.07.14.07a.71.71,0,0,0,.07.21l.15.08v-.8Zm1-2.88H44v9.51H42.62V38.66Zm-.07-1.29h1.59a.07.07,0,0,1,.07.07v.94l-.07.07H42.55a.07.07,0,0,1-.07-.07v-.94c0-.07,0-.07.07-.07ZM46.8,39.1h1.3v9.07H46.87L46.8,39.6h0v-.5Zm-.07-1H48.1a.07.07,0,0,1,.07.07v.72c0,.07,0,.07-.07.07H46.73c-.07,0-.07,0-.07-.07v-.72a.07.07,0,0,1,.07-.07Zm.65-1.37a.26.26,0,0,0-.22.14.29.29,0,0,0-.07.15.73.73,0,0,0-.07.29c-.15.07-.29.21-.15.43s.07.14.07.21h0l.44.08h0l.5-.08h0c0-.07-.07-.14,0-.21s.07-.36-.07-.43a.73.73,0,0,0-.07-.29.22.22,0,0,1-.08-.15.28.28,0,0,0-.28-.14Zm-3.17,2.09h.21c.22,0,.29-.15.36-.36s.29-.22.29-.51a.21.21,0,0,0-.29-.21h-.07a.24.24,0,0,1,.07.14c-.07.15-.36.15-.43.36a.45.45,0,0,0-.07.29v.07h-.07v.22Zm0,.07h.29v.43h-.29v-.43Zm0,.5h2.45v.44H44.21v-.44Zm-3.89,2.16c.14,0-.22.36-.43.44a.29.29,0,0,0-.15.07.35.35,0,0,0-.07.21l-.14.08v-.8Zm3-5.68h-.07c-.14,0-.21.21-.29.36a.7.7,0,0,0-.07.28c-.14.08-.36.44-.21.58s0,.14.14.14h.94c.14,0,0-.07.14-.14s0-.5-.22-.58v-.28c-.07-.15-.21-.36-.36-.36Zm-.93,3h-.22c-.21,0-.29-.15-.36-.36s-.29-.22-.29-.51.22-.28.29-.21h.07a.24.24,0,0,0-.07.14c.07.15.36.15.51.36v.29a.07.07,0,0,0,.07.07h0v.22ZM44.21,40h2.45v.94H44.21V40Zm0,1.08h2.45v.43H44.21V41Zm0,1.3c0-.08.14-.15.21-.22a.77.77,0,0,0,.51-.43l.07-.07h-.79v.72Zm2.45,0-.22-.22a1.16,1.16,0,0,1-.58-.43v-.07h.8v.72Zm0-3.24v.14h-.29A.77.77,0,0,1,46,39.1a.29.29,0,0,1-.07-.22c0-.07,0-.07.14-.14s0-.08.07-.15.15-.14.29-.14h.07v.65Zm1.58.21h.22c.21,0,.28-.21.36-.36s.28-.29.28-.57-.07-.22-.14-.22a.07.07,0,0,0-.07.07.11.11,0,0,1,0,.15c-.15.07-.43.14-.51.36a.42.42,0,0,0-.07.28v.08h-.07v.21Zm0,1.73h.36v.43h-.36V41Zm0-1.66h.29v.44h-.29v-.44Zm.07,4.83a.76.76,0,0,1,.36.36.35.35,0,0,1,.07.36,1,1,0,0,1,.58.86,1,1,0,0,1-.07.43,1.75,1.75,0,0,1,.36.51,1.57,1.57,0,0,1-.07.86l-1.23-.07V44.21Zm0,3.53H49.9v.43H48.31Z"/><path class="cls-1" d="M35.06,0h0A35,35,0,0,1,70.2,35.06h0A35,35,0,0,1,59.9,59.83a34.73,34.73,0,0,1-24.84,10.3h0v-.79h0A34.3,34.3,0,0,0,69.41,35.06h0A34.42,34.42,0,0,0,35.06.72V.79h0V0Zm0,13.68h0A21.39,21.39,0,0,1,56.45,35.06h0a21.25,21.25,0,0,1-6.27,15.12,21.74,21.74,0,0,1-9.28,5.48l.43.64a22.46,22.46,0,0,0,9.43-5.61,21.82,21.82,0,0,0,6.48-15.63h0a22.08,22.08,0,0,0-6.48-15.69,22.4,22.4,0,0,0-15.7-6.48h0Zm0,56.45h0A34.68,34.68,0,0,1,10.3,59.83,35,35,0,0,1,0,35.06H0A35,35,0,0,1,35.06,0h0V.79h0V.72A34.19,34.19,0,0,0,10.87,10.8,33.94,33.94,0,0,0,.79,35.06h0A34.3,34.3,0,0,0,35.06,69.34h0v.79Zm0-57.24h0A22.12,22.12,0,0,0,13,35.06h0a21.82,21.82,0,0,0,6.48,15.63,22.46,22.46,0,0,0,9.43,5.61l.43-.64a21.49,21.49,0,0,1-15.55-20.6h0A21.39,21.39,0,0,1,35.06,13.68h0Z"/><path class="cls-1" d="M39.67,27c.22,0,.43-.07.58-.07a3,3,0,0,0,.93-.65,14,14,0,0,1,1.44-.65c.44-.14.51-.29.44-.43s-.22-.29-.72-.72-.65-.94-1.08-1.37a4.81,4.81,0,0,0-.94-.57,2.36,2.36,0,0,0-.43-.08,3,3,0,0,0,0-.79,3.51,3.51,0,0,0-.22-.5v1.94a1.91,1.91,0,0,1,1.08.43,3.14,3.14,0,0,1,.58.87,5.71,5.71,0,0,0,.72.72,8.16,8.16,0,0,0-1.23.57,2,2,0,0,1-1.15.65Zm-1.37.58a2.52,2.52,0,0,0,.29-.65v-.07h0a2.43,2.43,0,0,0,.79.14h.29v-.65h-.29a7.11,7.11,0,0,1-.72-.14.07.07,0,0,1-.07-.07,3.12,3.12,0,0,0-.29-.58v2Zm1.37-6.41a4.91,4.91,0,0,1-.29-1.59c0-.14,0-.36-.14-.36a.55.55,0,0,0-.5-.07l-.44.22v.72a.29.29,0,0,1,.22-.07c.14-.15.22-.15.22-.15a5.67,5.67,0,0,1,.07.65,1.67,1.67,0,0,0,.21.72,3.13,3.13,0,0,1,.22,1.15v.07a2.3,2.3,0,0,0-.94.22h0v.72a1.57,1.57,0,0,1,1.23-.29h.14Zm-2,7a2.35,2.35,0,0,0,.64-.57v-2l-.21-.22c-.15-.07-.22-.28-.43-.36v.72a2.77,2.77,0,0,1,.28.65,1.2,1.2,0,0,1-.28.94v.86Zm.64-8.78c-.14,0-.28.07-.36.07s-.21.07-.28.07v.72a2.1,2.1,0,0,1,.64-.14v-.72Zm0,3.31v.72a.83.83,0,0,0-.28.22,1,1,0,0,0-.36.43V23A1.4,1.4,0,0,1,38.3,22.68Zm-.93,5.54c.07,0,.21-.07.29-.07v-.86c-.08.07-.22.14-.29.21v.72Zm.29-8.71c-.08,0-.22.07-.29.07v.65h.29v-.72Zm0,3.53v1a3.41,3.41,0,0,0-.29.57V23.33a.52.52,0,0,1,.29-.29Zm0,1.94v.72c-.08-.07-.22-.14-.29-.21v-.72c.07.07.21.14.29.21Zm-.29-2v-.58c.07.07.07.15.07.29A.45.45,0,0,1,37.37,23Zm-.43,6.26a11,11,0,0,1,.43-1h0V27.5c-.07,0-.15.08-.22.08a.26.26,0,0,1-.21.07v1.58Zm.43-9.65c-.15.08-.36.08-.43.15v.65h.14c.07-.08.22-.08.29-.15v-.65Zm0,2.81V23a.52.52,0,0,1-.43.21h0V22.1h0a.61.61,0,0,1,.43.29Zm0,.94V24.7l-.07.07h.07v.72l-.43-.22V24.05c0-.07,0-.15.07-.15A1.46,1.46,0,0,1,37.37,23.33ZM35,30.6h0a1.59,1.59,0,0,0,1.3-.58,3.35,3.35,0,0,0,.65-.79V27.65a2.89,2.89,0,0,0-1.08.36,10.79,10.79,0,0,0-.87.79h0v.79h0a5.11,5.11,0,0,0,.87-.79,1.48,1.48,0,0,1,.72-.43,3.84,3.84,0,0,1-.15.43A1.77,1.77,0,0,1,35,30h0v.58Zm1.95-10.87h-.08A7.49,7.49,0,0,0,35,20.88h0v.72h0c.65-.14,1.23-.94,1.95-1.22v-.65Zm0,2.37v1.08a.51.51,0,0,1-.58-.5.57.57,0,0,1,.58-.58Zm0,1.95v1.22h-.36a2.66,2.66,0,0,0-1.37.65A.37.37,0,0,1,35,26h0V23.33h.36v1.73s0-.08.07-.08V24.7a2.77,2.77,0,0,0,.22-.51,5.06,5.06,0,0,1,.5-.86l.51.36a2.89,2.89,0,0,0-.43.86c-.08.07-.08.07-.08.15a1.3,1.3,0,0,1,.58-.08,1.86,1.86,0,0,1,.22-.57ZM35,22.9V21.82h0a.55.55,0,0,1,.58.5.62.62,0,0,1-.58.58Zm-1.94,6.33a3.07,3.07,0,0,0,.57.79A1.86,1.86,0,0,0,35,30.6V30a1.78,1.78,0,0,1-1.44-1.22,3.14,3.14,0,0,1-.14-.43,1.57,1.57,0,0,1,.72.43c.5.5.72.79.86.79V28.8a5.49,5.49,0,0,0-.93-.79,2.62,2.62,0,0,0-1-.36v1.58ZM35,20.88h0a7.49,7.49,0,0,0-1.87-1.15h-.07v.65c.72.28,1.22,1.08,1.94,1.22v-.72Zm0,.94V22.9a.61.61,0,0,1-.57-.58.54.54,0,0,1,.57-.5Zm0,1.51V26a.26.26,0,0,1-.21-.07,2.7,2.7,0,0,0-1.37-.65h-.36V24.05a2,2,0,0,1,.21.57,1.46,1.46,0,0,1,.58.08c0-.08-.07-.08-.07-.15-.15-.29-.29-.65-.43-.86l.5-.36a5.06,5.06,0,0,1,.5.86,1.64,1.64,0,0,1,.15.51.53.53,0,0,1,.07.28l.07.08V23.33Zm-1.94-.15V22.1h0a.61.61,0,0,1,.57.58.54.54,0,0,1-.57.5Zm-.43,5c.14.29.28.65.43,1V27.65a.28.28,0,0,1-.22-.07c-.07,0-.14-.08-.21-.08v.72Zm.43-8.49c-.07-.07-.29-.07-.43-.15v.65c.07.07.21.07.28.15h.15v-.65Zm0,2.37v1.08a.43.43,0,0,1-.43-.21v-.58a.48.48,0,0,1,.43-.29Zm0,1.95v1.22l-.43.22v-.72h.07l-.07-.07V23.33a1.73,1.73,0,0,1,.36.57C33.05,23.9,33.05,24,33.05,24.05Zm-.43-4.47c-.08,0-.22-.07-.29-.07v.72h.29v-.65Zm-.29,8.57c.07,0,.14.07.29.07V27.5a.9.9,0,0,1-.29-.21v.86Zm.29-5.76V23a.4.4,0,0,1-.08-.29c0-.14,0-.22.08-.29Zm0,.94v1.29a6.21,6.21,0,0,0-.29-.57V23a1.13,1.13,0,0,1,.29.29Zm0,1.44v.72a.9.9,0,0,0-.29.21V25A.9.9,0,0,1,32.62,24.77Zm-.29-5.26c-.07,0-.22-.07-.29-.07a3.29,3.29,0,0,0-.36-.07v.72a2.17,2.17,0,0,1,.65.14v-.72Zm-.65,8.07a2.37,2.37,0,0,0,.65.57v-.86a1,1,0,0,1-.29-.94,1.29,1.29,0,0,1,.29-.65V25a1.17,1.17,0,0,0-.43.36l-.22.22v2ZM32.33,23v1a1,1,0,0,0-.36-.43c-.07-.08-.22-.15-.29-.22v-.72A1.44,1.44,0,0,1,32.33,23Zm-.65-3.67-.43-.22a.57.57,0,0,0-.51.07c-.14,0-.14.22-.14.36a4.65,4.65,0,0,1-.29,1.59v1.94h.15a1.56,1.56,0,0,1,1.22.29v-.72h0a2.3,2.3,0,0,0-.94-.22v-.07A2.15,2.15,0,0,1,31,21.24a4.3,4.3,0,0,0,.22-.72,5.67,5.67,0,0,1,.07-.65l.21.15a.37.37,0,0,1,.22.07v-.72ZM30.31,27h.29a2.43,2.43,0,0,0,.79-.14h0v.07a2.92,2.92,0,0,0,.29.65v-2a3.9,3.9,0,0,0-.29.58l-.07.07a6.13,6.13,0,0,1-.72.14h-.29Zm0-5.83a3.59,3.59,0,0,0-.21.5,2.93,2.93,0,0,0-.08.79,3.44,3.44,0,0,0-.36.08,5.08,5.08,0,0,0-.93.57c-.43.43-.58,1-1.08,1.37s-.72.65-.72.72,0,.29.43.43a13.05,13.05,0,0,1,1.44.65,3.07,3.07,0,0,0,.94.65c.14,0,.28.07.57.07v-.65a2.08,2.08,0,0,1-1.15-.65,7.77,7.77,0,0,0-1.22-.57,6.5,6.5,0,0,0,.72-.72,2,2,0,0,1,.57-.87,1.73,1.73,0,0,1,1.08-.43Z"/><path class="cls-1" d="M6.26,24.62S6,24.34,6,24.55s-.15.43-.22.43-.36-.07-.29-.14.07-.43,0-.43a3.43,3.43,0,0,1-.65-.22s-.36-.07-.43-.21a.87.87,0,0,1,.15-.72c.07-.22.14-.08.28-.15s.15-.07.29.15.65.5.58.36-.15-.65-.29-1-.65-.94-.58-1.15a.51.51,0,0,1,.51-.36c.14-.08.43.21.43.21a4.33,4.33,0,0,0,.07.79,3.47,3.47,0,0,1,.22,1.16c0,.28-.07.64.21.72s.94,1,.87.57c0-.21.07-.14-.07-.29s-.44-.64-.22-.64.43,0,.29-.22a2.14,2.14,0,0,1-.58-.65c-.07-.14-.36-.36-.14-.5s.36-.07.43.07.14.36.29.36.14.22.14-.07A3,3,0,0,0,7,21.89c0-.07.08-.36.22-.43s.14.07.14.21a1.43,1.43,0,0,1,.15.72c.07.22,0,.51.07.58s.65,1.29.72,1.37.14.07.14,0v-.08a20.62,20.62,0,0,1,0-2.08c.08-.22.15-.44.22-.36a.65.65,0,0,1,.29.43,1.2,1.2,0,0,1-.15.5,10,10,0,0,0-.07,1.44.76.76,0,0,1,.07.29c.15.07,1.16.72,1.3.58s.07-.08.07-.15,0-.57.15-.57.36.07.36.28-.22.58-.08.65,1.52.43,1.8.51,1.08.36.72.64-.57.44-.72.44-.28,0-.21-.15.14-.21-.51-.5-1-.51-1-.36.07.57.14.57.5.44.14.65-.64.22-.64.07v-.21c0-.15-.15-.72-.15-1s0-.29,0-.29L9,25.2s-.22-.07-.14.22a9.31,9.31,0,0,0,.5,1.94c.29.86.5.86.36,1.22s-.29.65-.29.51-.36,0-.43-.15a12.15,12.15,0,0,1-.43-3.31c-.07-.36-.15-.65-.15-.65a8,8,0,0,0-.79-.43c-.07-.07-.07.29,0,.72v.43c.07.29.22.65,0,.8-.72.28-.43-.94-.5-1.16s-.15,0-.22-.07A5.68,5.68,0,0,0,6.26,24.62Z"/><path class="cls-1" d="M15.48,16a.32.32,0,0,1,.29-.21,4.92,4.92,0,0,1,1.94,1.65c0,.15-.5.72-.65.65s-.28-.36-.36-.57A10.83,10.83,0,0,0,15.48,16Z"/><path class="cls-1" d="M18.14,11.66c.44.51.94,1,1.23,1.37l1.37,1.51a.59.59,0,0,1-.51.58,9.56,9.56,0,0,1-1.44,0c-.07,0-.07,0,.15-.14s.72-.22.72-.36a11.93,11.93,0,0,0-1.52-1.88V11.66Zm0,4.32h0a.7.7,0,0,0,.8.22c.28,0,0-.43,0-.43a8.33,8.33,0,0,1-.72-.87c-.08-.14,0-.5,0-.72,0-.07,0-.07-.08-.14Zm-.72-5.25.72.93v1a5.48,5.48,0,0,1-.72-.93v-1ZM18.14,14V16c-.21-.21-.28-.28-.36-.14s-.28.36-.36.29v-.07a1.15,1.15,0,0,1,.22-.51l-.22-.29V15c.15-.08.44-.29.44-.29s-.08-.43,0-.51a.53.53,0,0,1,.28-.14Zm-.72.14c.08-.07.15-.14.15-.21s-.07-.15-.15-.22Zm-.36-4c.08.15.22.29.36.51v1c-.14-.22-.28-.44-.36-.58v-.94Zm.36,3.53v.43a2.36,2.36,0,0,0-.21.44c0,.14-.07.07-.07.07l-.08.07v-.94a.29.29,0,0,1,.22-.07Zm0,1.23v.28l-.14-.14.14-.14Zm0,1.08v0Zm-3.16-1.37a1.44,1.44,0,0,1-.08.5.75.75,0,0,1-.36.15c-.07,0,0-.08-.07,0s-.65.14-.5-.22.21-.22.29-.43.21-.79.28-1.08.29-.94.29-.94.07-.21-.21-.72-.58-.93-.65-1-.15-.28,0-.28,1.08.14,1.15.14.14.07.22-.14.07-.51.28-.36a1,1,0,0,1,.29.93,2,2,0,0,0-.07,1.3,7.88,7.88,0,0,0,.22,1.15c.07.07.14.43.28.36A1.39,1.39,0,0,0,16,13.1a3.1,3.1,0,0,0-.14-.72.07.07,0,0,1-.07-.07c-.07-.21,0-.43.14-.43H16A9.05,9.05,0,0,1,16.42,10c.14-.22.36-.36.43-.15a1.9,1.9,0,0,1,.21.36v.94a3.14,3.14,0,0,0-.36-.5c0-.15-.14-.29-.21.36s-.22.72,0,.79.43.14.29.57a4,4,0,0,1-.36.87c.07.14,0,.5.14.65s0,.43-.14.43a1.64,1.64,0,0,0-.44-.07v.93s-.57.58-.57.29.29-.58.29-.79-.29-.36-.44-.58-.43-1-.57-.93a2.6,2.6,0,0,0-.36,1.15c0,.29-.07.36-.07.36Zm2.8-.87a1.33,1.33,0,0,0-.14.36c0,.15-.43.29-.36.51s.22.29.29.14c.07,0,.14-.07.21-.07Z"/><path class="cls-1" d="M30,4.82,29.59,5a1.39,1.39,0,0,1,.51-.86A12,12,0,0,1,31.39,3C31.61,3,32,3,32,3.24a4,4,0,0,1-.22.94c-.07.21-.36,2.16-.36,2.37s-.43.43-.57.51-.15.21-.07.72,0,.57.14.57.72-.21.72.07-.5,1.23-.5,1.3-.15.36.07.29.43-.22.65-.29.28,0,.43.22a.43.43,0,0,1-.29.72,2.27,2.27,0,0,0-.65.14c-.29,0-.93,0-1-.29s.22-.21.22-.36,0-.86-.07-.86-.43-.15-.36-.29.14-.07.14-.22A1.31,1.31,0,0,0,30.24,8c-.07-.14-.5-.29-.36-.5s.07-.07.14-.22.08-.57.15-.65-.07-.14-.15-.14-.28-.14-.14-.29.36-.07.43-.29a1.6,1.6,0,0,0,.07-.57c.08-.36,0-.36,0-.36s.29-.22.36-.07v.72c0,.21.08.43.22.21s.29-1.58.36-1.8.07-.57-.07-.43C30.89,4,30.38,4.39,30,4.82Z"/><path class="cls-1" d="M28.8,5.47c-.07,0-.22-.14.07-.21s.58-.15.65.07.14,1,.14,1.15a.28.28,0,0,1-.28.43c-.36,0-.36-.29-.36-.65A1.78,1.78,0,0,0,28.8,5.47Z"/><path class="cls-1" d="M27.22,6.26a.92.92,0,0,1-.22.15c-.07.14-.14.21-.22.21s-.57-.14-.57-.21-.07-.22,0-.36a12.16,12.16,0,0,1,1.08-.79c.21-.22.65-.58.72-.36,0,.07.29.21.29.43a8.71,8.71,0,0,1-.22.93c0,.29-.07,1.23-.07,1.23s.29.07.21.21-.36.36-.14.51.29.07.36-.15l.14-.43a6.33,6.33,0,0,1-.28,1.51c-.29,1-.51,1.44-.8,1.59s-.5.07-.43-.22.07-.5.15-.65.21-.5.21-.64,0-.51-.14-.51-.51.29-.72.29,0-.58,0-.5.07-.08.14-.15a1.44,1.44,0,0,1,.43-.29s.29-.07.29-.5a9.05,9.05,0,0,1-.07-1.22C27.29,6.19,27.22,6.26,27.22,6.26Z"/><path class="cls-1" d="M43.42,5.69s-.15-.07-.08-.15a.44.44,0,0,1,.51,0,3.07,3.07,0,0,0,1.44.51A4.25,4.25,0,0,0,46.51,6a6.1,6.1,0,0,1,.65.5s.07.36-.14.5A10.14,10.14,0,0,0,45.5,8.21l-.72.72c-.07.21.22.14.58.07.07-.07.14-.22.22-.14s.43.21.43.28,0,.58-.65.51a6.09,6.09,0,0,0-1.94.21,9.63,9.63,0,0,0-1.8.72c-.22.22-.58-.14-.94-.28a.87.87,0,0,1-.29-.36c-.07-.29-.07-.65.15-.65a2,2,0,0,1,.64.07c.36.07.15.07.8-.07A10.46,10.46,0,0,1,43.2,9c.14-.07,1.51-1.3,1.8-1.51s1.37-.94,1.15-1.08a6.44,6.44,0,0,0-1.58.36c-.15,0-.07.14-.15.14a.73.73,0,0,1-.79-.36A1.18,1.18,0,0,1,43.42,5.69Z"/><path class="cls-1" d="M55.51,15.26c.07,0-.07.29-.07.58a4.7,4.7,0,0,0,.22,1.37,1.82,1.82,0,0,0,.36.86c.07.15.21.43-.15.29s-.36-.36-.57-.5-.51-.22-.58-.29-.14-.29-.07-.87a6.08,6.08,0,0,1,.21-.93c0-.15.08-.43.22-.43A1.13,1.13,0,0,1,55.51,15.26Z"/><path class="cls-1" d="M56.59,12.38c.07-.07.07-.14.07-.28s.15-.15.36-.22.22-.07.36.22.44.43.22.79S56.66,14,56.74,14s0-.07.14,0a1.14,1.14,0,0,1,.58.07c.07.29-.29.79-.51.65s-.5-.36-.79-.22l-.58.36c-.14.08-.36.08-.5.15a3.3,3.3,0,0,1-1.15.57c-.22.08-1.3.22-1.73.29a6.3,6.3,0,0,1-1.15,0,12.63,12.63,0,0,1-1.59-.07c-.07,0,0-.22.36-.22a5.22,5.22,0,0,1,1.44-.21,6.59,6.59,0,0,0,1.37-.15c.87-.36,1.87-.43,2-.72s.07-.14-.22-.14-.79.07-1.08-.29c-.07-.14-.14-.21-.07-.29a.36.36,0,0,1,.14-.28c.08,0,.29.07.36.07a6,6,0,0,1,1.23.14,1.22,1.22,0,0,0,.72-.07A7.92,7.92,0,0,0,56.59,12.38Z"/><path class="cls-1" d="M63.29,24.48c0-.07.07-.07.14-.07s.22.29.07.29-.14.14-.21.14v.36h.21c.22-.07.15-.14.29-.43s.36,0,.43.14.44.36.51.51-.22.14-.43.14a4.27,4.27,0,0,0-1-.07h0v.21h.07a7.05,7.05,0,0,1,1.3.36.72.72,0,0,0,.57.08c.15-.08.36-.22.36-.36s.15-.36-.14-.51-.87-.65-1.08-.65a.46.46,0,0,1-.29-.36c.07-.14-.07-.21,0-.36a.43.43,0,0,1,.5-.07,9,9,0,0,1,1,.36c.29.15.36-.07.51-.07s.21-.07.21-.5-.36-.44-.36-.36,0,.07-.36.28a3.16,3.16,0,0,1-1.73-.14c-.14,0-.14-.22-.28-.36a.63.63,0,0,0-.29-.29V23c0,.07.07.14,0,.22h0v.28c.14.15.21.22.21.36s0,.15-.07.08-.14,0-.14-.08v.58Zm0-1.94V22l.07.07c.07.15-.07.36-.07.36Zm-.43,2c.07-.07.07-.07.14-.07h.29V23.9h-.07a1,1,0,0,1-.22-.14c0-.07,0-.36.22-.22h.07v-.28a.14.14,0,0,1-.22,0l-.14-.08a.24.24,0,0,1-.07-.14v.36h0v1.15Zm.43.29h-.22a.26.26,0,0,1-.21-.07v.29c.07,0,.07.07.14.07s.14.07.29.07v-.36Zm0-2.88v.58c-.07.07-.07.14,0,.14V23l-.15-.14c-.07-.15-.07,0-.21,0s-.07.07-.07.14v-.65c.07-.07.07-.14.14-.21s.14-.29.29-.22Zm0,3.53v.21h-.43v-.28A1,1,0,0,1,63.29,25.49Zm-.51-.72c0-.07,0-.22.08-.22V23.4a.33.33,0,0,1-.08.22.58.58,0,0,1-.36,0,.29.29,0,0,1,.22-.36c.14,0,.22.07.22.14V23h0v-.65a7.46,7.46,0,0,1-.72.79c-.22.29-.51.22-.44.15s.15-.43.22-.58a1.11,1.11,0,0,0-.07-.43c-.07-.14-.15.07-.29.29a2.45,2.45,0,0,1-.36.57c-.14,0-.14.08-.29.22s0,.14.15.22.86.07,1.08.14.36.22.28.36-.43.07-.57,0-.29,0-.22.07.29.15.72.29.22.29.15.36-.29-.07-.44.07.51.15.58.15h.22v-.29Zm.08.65v.28c-.15,0-.22,0-.22.08s.22.57.07.64-.36.15-.72-.21a2.35,2.35,0,0,0-1.08-.58c-.29-.07-.79-.21-.65-.07s.29.36.36.36a.84.84,0,0,1,.29.86c-.14.36-.21.22-.57,0s-.72-.36-.72-.43.28-.07.36-.07.28,0,.14-.22-.36-.14-.58,0-.36.29-.43.36-.93.51-1.08.58-.72.07-.72-.14a.57.57,0,0,1-.07-.36c-.07-.36-.14-.72-.14-.8s.07-.28.21-.14.22.72.36.72.07,0,.22-.07a1.24,1.24,0,0,0,.5-.07A3,3,0,0,0,59,25.7c.14-.07.22-.14-.07-.43s-1.08-.57-1.37-1.08a3.16,3.16,0,0,1-.29-.5c0-.07.22-.22.29-.22s.22.22.22.36.43.51.64.58a.54.54,0,0,1,.29.07,6,6,0,0,1,.72.36.85.85,0,0,0,.58.22c.14-.08.36.21.5.28s.72.22.94.15.21-.07.07-.15a5,5,0,0,1-1.15-1.08,1.93,1.93,0,0,1-.36-.14c-.15-.29.21-.36.43-.07a2.54,2.54,0,0,0,.65.57,2,2,0,0,1,.72.44c.36.28.36.36.5.36Z"/><path class="cls-1" d="M61.7,50.62v-.51s.08,0,.08-.07.14-.07.21-.22.07-.14.07-.28-.07-.22-.07-.36a.89.89,0,0,0-.29-.29v-.65a4.81,4.81,0,0,1,.65.72,1.08,1.08,0,0,1,0,1.15.77.77,0,0,1-.65.51Zm0-3.1,1.52.86.79-1.8-.43-.21L63,47.66l-1.3-.72v.58Zm0-1.87v-.58a.25.25,0,0,0,.15.07c.36.15.86.29,1.08.36h.5c.72-.07.79-.64.36-1a2.28,2.28,0,0,1-.43-.36,4.41,4.41,0,0,0-1-.44,5.06,5.06,0,0,1-.65-.28v-.51a3.68,3.68,0,0,1,.8.29,5.17,5.17,0,0,1,1.58.94,1.33,1.33,0,0,1,.36,1.22c-.07.43-.5.58-.94.65a3.91,3.91,0,0,1-1.8-.36Zm0-3a6.42,6.42,0,0,0,3,.36c.36-.07.57-.36.72-.79a1.27,1.27,0,0,0-.22-.86l.36.07.07-.36L63,40.46l-.22,1.16.44.07.14-.58a5.39,5.39,0,0,1,1,.22c.14,0,.21.07.36.14l.21.22v.36a.6.6,0,0,1-.14.29c0,.07-.14.07-.29.14a5.57,5.57,0,0,1-2.81-.36v.5Zm0-1.87v-.5h.08l-.08.5Zm0-1v-.5L62.78,39l-1.08-.5V38l1.73.86,2.45.43-.07.51-2.45-.44Zm0-1.72v.5l-1-.5.07-.51.93.51Zm0,1.22v.5L60.41,40l.07-.57,1.22-.22Zm0,1v.5a1,1,0,0,0-.64,0,.47.47,0,0,0-.36.65c.07.07.14.22.21.29a1.71,1.71,0,0,0,.51.29c.07.07.14.07.28.14v.5a2.94,2.94,0,0,1-1.08-.5A1.24,1.24,0,0,1,60.19,41a1,1,0,0,1,.65-.79,1.24,1.24,0,0,1,.5-.07.78.78,0,0,1,.36.07Zm0,2.66a3.57,3.57,0,0,0-1.36-.21.91.91,0,0,0-.87.64,1.51,1.51,0,0,0,.29,1.23,7.77,7.77,0,0,0,1.94,1.08v-.58a9.35,9.35,0,0,1-1.15-.5c-.21-.15-.29-.29-.43-.36-.36-.36-.29-.94.29-1,.14-.07.36,0,.57,0a6.55,6.55,0,0,0,.72.22v-.51Zm0,4v.58l-3-1.8V45.5l.07-.28,3,1.72Zm0,1.3c-.28-.29-.72-.58-1-.86a5.49,5.49,0,0,0-1.88-.94h-.14v.5h.14a3.25,3.25,0,0,1,.51.15c.21.14.79.57,1.15.79s.94.72,1.08.86a.16.16,0,0,1,.14.15v-.65Zm0,1.87v.51c-.07,0-.14.07-.28,0a5.1,5.1,0,0,1-1.88-.94,10.88,10.88,0,0,1-.86-.72v-.65h0a6.8,6.8,0,0,0,1.08.87,5.87,5.87,0,0,0,1,.64,1.72,1.72,0,0,0,.72.29Zm-3,4v-.65l.86.94-.28.36-.58-.65Zm0-1.51L60,53.78l.28-.43-1.58-1.44v.65Zm0-1.44,2.38,1.08.28-.36-2.66-2.45V50L60,51.26l-1.3-.64Zm0-5.62v.22l-.07-.07.07-.15Zm0,.94v.5c-.07,0-.14.08-.22.08s-.14.14-.14.21-.07.22-.14.29a1.22,1.22,0,0,0,.14.36.92.92,0,0,0,.36.43V49a4.14,4.14,0,0,1-.79-.79,1.23,1.23,0,0,1,0-1.23,1,1,0,0,1,.79-.5Zm0,3-1.37-1.22L57,48.6,58.68,50v-.65Zm0,1.23v.5l-1.87-.86,1.87,1.65v.65l-2.09-1.87V49.61l2.09,1Zm0,2.8-2.09-2.16v.65l.65.65-.65.72v1.3L58,56.09l.29-.36-1.66-1.8.87-1.08,1.15,1.22v-.65ZM56.59,57.6V57h0c.07-.07.07-.14.15-.21v-.29a.71.71,0,0,0-.08-.36.07.07,0,0,1-.07-.07v-.72l.07-.07a2.52,2.52,0,0,1,.51,1.15,1.11,1.11,0,0,1-.29.93C56.81,57.46,56.66,57.53,56.59,57.6Zm0-8v1.08l-.65-.51.51-.64.14.07Zm0,1.65-.79-.86-.36.36,1.15,1.15v-.65Zm0,2v1.3l-2.16-2.31v-.21l.22-.22,1.73,1.73.21-.29Zm0,2.09v.72a1.26,1.26,0,0,0-.29-.43l.29-.29Zm0,1.65c-.07.08-.14.08-.21.15A.78.78,0,0,1,56,57.1a1.08,1.08,0,0,1-.44-.36,6.2,6.2,0,0,1-.86-.94c-.07-.14-.22-.29-.29-.43v.79a5.32,5.32,0,0,0,1.44,1.44,1.25,1.25,0,0,0,.72,0V57Zm-2.16,2.45v-.65l.94-.79.21.43-1.15,1Zm0-6.12a.07.07,0,0,1,.07.07c.15.08.22.22.36.36l.36-.36a1.82,1.82,0,0,0-.79-.64Zm0-1.29v.21l-.07-.07.07-.14Zm0,.72v.57a.22.22,0,0,0-.14-.07h-.22c-.07,0-.14.07-.21.14s-.08.15-.15.22V54a3.42,3.42,0,0,0,.22.58,7.46,7.46,0,0,0,.5.79v.79h-.07a7.94,7.94,0,0,1-1.08-2,1.16,1.16,0,0,1,.29-1.08.71.71,0,0,1,.79-.28Zm0,6-.21.15L53.06,57.1l.87-.72-.29-.44-.86.72-.58-1v.86l1.94,3.24.29-.29v-.65ZM52.2,59.9V59l.86,1.44-.43.22-.43-.8Zm0-4.89v-.65l.5-.5.29.43Zm0-.65V55l-.29.21.29.44v.86l-.86-1.44.86-.72Zm0,4.68L50.54,56.3l.72-.57L51,55.3,49.1,56.66l.29.44.72-.51L52.2,59.9V59Zm-5.26,4.82v-.64a.39.39,0,0,1,.08-.29,2.24,2.24,0,0,0-.08-.65V60.55a.26.26,0,0,0,.08.22A12.27,12.27,0,0,1,47.45,63a1.3,1.3,0,0,1-.51.86Zm0-4.39,1.44,3.75.44-.22-1.08-2.66,1.15-.58-.22-.5-1.08.57L47,58.46l1.22-.64L48,57.31,46.94,58Zm0-1.51v1.51l-.57-1.29.57-.22Zm0,2.59A4.18,4.18,0,0,0,46.08,59c-.07-.07-.07-.15-.14-.15v.72a1.21,1.21,0,0,1,.21.29c.07.22.29.72.43,1.15s.29.87.36,1.16V60.55Zm0,2.67v.64H46.8a.74.74,0,0,1-.86-.07v-.72c.07.07.14.15.14.22a1,1,0,0,1,.29.21c.14,0,.21,0,.29-.07s.14-.07.21-.14S46.87,63.22,46.94,63.22Zm-1-4.4v.72c-.08-.07-.08-.14-.15-.21a.54.54,0,0,0-.29-.15h-.28L45,59.4c0,.07-.07.14-.07.29v.65a9.2,9.2,0,0,0,.36,1.15,7.94,7.94,0,0,0,.5,1.29c.07.15.07.22.15.29v.72a.29.29,0,0,0-.15-.07,8.42,8.42,0,0,1-.93-2,6,6,0,0,1-.36-2.08.87.87,0,0,1,.57-.87.77.77,0,0,1,.87.07ZM38.3,66V64.66L38.45,66Zm0-4.89.8-.08.57,4.83.43-.07-.57-4.83.86-.14-.07-.51-2,.29v.51Zm3.6,1.8.51,2.52.43-.15-.5-2.52.36-3-.44.14L42,62.14l-.94-2-.43.07Zm-4.68-.65h-.43c0-.58-.14-.94-.57-.94s-.65.29-.65.94a.79.79,0,0,0,.36.72.9.9,0,0,0,.29.21c.14,0,.21.08.28.08a1.26,1.26,0,0,1,.8,1.36c0,1-.36,1.52-1.08,1.52-.51.07-.87-.22-1-.8a2.77,2.77,0,0,1-.07-.93h.36c0,.86.21,1.29.72,1.29s.64-.36.64-.93-.14-.72-.43-.87c-.07,0-.07,0-.14-.07a.83.83,0,0,0-.22-.14,3.16,3.16,0,0,1-.5-.29c-.29-.14-.43-.58-.36-1.15,0-.94.36-1.44.93-1.44s1.08.5,1.08,1.44Zm1.08-1.66v.51l-.07.07v-.51l.07-.07Zm0,4.11-.36-4-.43.08L37.94,66,38.3,66V64.66Zm-4.46-.8V63a.38.38,0,0,0,.29-.22,1.22,1.22,0,0,0,.21-.72,1.37,1.37,0,0,0-.14-.57.69.69,0,0,0-.36-.29v-.5h.07a1,1,0,0,1,.43.14.69.69,0,0,1,.29.36.79.79,0,0,1,.15.43,1,1,0,0,1,.07.43c0,.58-.07.44-.07.51s-.08.21-.15.36a.4.4,0,0,1-.14.29.39.39,0,0,1-.29.21l.58,2.67h-.51Zm0-3.16v.5h-.43L33.26,63h.58v.86l-.07-.36h-.51L33.19,66h-.5L33,60.7Zm-3.53,5v-1.3l.51-4,1.8.29-.08.5L31.25,61,31,62.78l.94.15v.5l-1-.14-.29,2,1.44.15L32,66l-1.73-.21Zm0-4.83.22-.5-.22-.07Zm0-.57v.57l-1.44,4.61-.43-.07-.07-5.55.43.15.07,4.32L30,60.26l.29.08Zm0,4.1-.14,1.3h.14v-1.3ZM26.93,65V63.07l.72-3.38.43.14L27,65Zm0-4,.43-1.44-.43-.15Zm0-1.59v1.59L26,64.73l-.5-.15.07-5-1.22,4V61.92l.93-3,.65.21v4.18l1-3.89v.07Zm0,3.6-.36,1.87.36.08V63.07Zm-2.59-2.73L25,58.75l-.43-.21-.21.5Zm0-1.3v1.3l-.8,2.23a1.17,1.17,0,0,1-.28.5,1.89,1.89,0,0,1-.36.29,2.86,2.86,0,0,0-.36.07,1.11,1.11,0,0,1-.94-.72,1.24,1.24,0,0,1-.07-.5,1.76,1.76,0,0,1,.14-.58l1.44-3.81.36.21L22,61.85a1,1,0,0,0,0,.65.79.79,0,0,0,.29.36.47.47,0,0,0,.43,0,1.25,1.25,0,0,0,.36-.51L24.34,59Zm0,2.88-.58,2,.43.21.15-.65Z"/><path class="cls-1" d="M9.65,39a.54.54,0,0,0,.07-.36.22.22,0,0,0-.07-.14V39Zm0,11.74v-.58l1-.57-.72-1.37-.29.14v-.5l2.52-1.15.21.43-1.94.94.65,1.29,2-1,.29.44L9.65,50.76Zm0-4.18V46l1.44-.51-.29-.72.43-.14L12,46.51l-.36.15-.36-.72-1.65.64Zm0-1.65,1.44-.51-.15-.5-1.29.5v.51Zm0-1.87v-.51l.79-.21.07.43-.86.29Zm0-1v-.87c.07,0,.07,0,.07-.14H9.65v-.72a.89.89,0,0,1,.5.65,1.06,1.06,0,0,1-.36,1C9.72,42,9.72,42,9.65,42.05ZM8.57,39.89A.93.93,0,0,1,9,39.82a1.31,1.31,0,0,1,.36-.22,1.62,1.62,0,0,0,.29-.36v-.72a.56.56,0,0,0-.07-.36.8.8,0,0,0-.29-.36,2.1,2.1,0,0,0-.36-.22,1.89,1.89,0,0,0-1.66.51v.65c.58-.58,1.23-1.08,1.8-.51a3.69,3.69,0,0,1,.22.51c0,.14-.07.21-.07.28L9,39.24c-.07,0-.14.07-.22.07H8.57v.58Zm1.08.43V41c0-.07,0-.07-.07-.14a.38.38,0,0,0-.29-.15c-.07-.07-.29-.07-.51-.07a6.58,6.58,0,0,0-1.51.22v-.51A8.35,8.35,0,0,1,9,40.18a1.78,1.78,0,0,1,.65.14Zm0,.86v.87a8.51,8.51,0,0,1-1.87.72,1.29,1.29,0,0,1-.51.07v-.5a2.55,2.55,0,0,0,.36-.08A5.82,5.82,0,0,0,9,41.83a1,1,0,0,0,.5-.29.34.34,0,0,0,.15-.28v-.08Zm0,1.37-2.38.79v.51l2.38-.79v-.51Zm0,1.87v.51l-2.38.86v-.5l2.38-.87Zm0,1.59v.57l-2.38,1V47l2.38-1Zm0,1.87v.5L7.56,49.46,7.34,49l2.31-1.08Zm0,2.3v.58l-1,.58-.29-.44ZM7.27,38.09c-.5.43-.93,1.08-1.37,1.51-.07.07-.14.14-.21.14a.4.4,0,0,1-.29.08c-.22,0-.36,0-.43-.08a.38.38,0,0,1-.22-.36c0-.28,0-.43.15-.57a1.28,1.28,0,0,1,.72-.29L5.54,38a2.86,2.86,0,0,1-.36.07,1.31,1.31,0,0,0-.43.21.86.86,0,0,0-.29.36,1.23,1.23,0,0,0-.14.72,1.09,1.09,0,0,0,.14.51,1.76,1.76,0,0,0,.36.29.59.59,0,0,0,.36.14c.08,0,.22.07.22,0h.43c.07-.07.15-.07.22-.14a17.54,17.54,0,0,0,1.22-1.44v-.65Zm0,2.3v.51a13.3,13.3,0,0,0-1.37.43,1,1,0,0,0-.43.29c-.14.14-.21.21-.21.28v.22c0,.07,0,.07.07.14a.78.78,0,0,0,.29.22c.14,0,.28.07.57.07s.65-.14,1.08-.21v.5a5.68,5.68,0,0,1-1.8.14,1,1,0,0,1-.29-1.72,5.86,5.86,0,0,1,2.09-.87Zm0,3v.51l-.72.29c-.14,0-.29.14-.36.36a.45.45,0,0,0-.07.5.47.47,0,0,0,.29.36.62.62,0,0,0,.5,0l.36-.07v.5l-.14.07a1.3,1.3,0,0,1-.51.08,1.11,1.11,0,0,1-.43-.15,1.21,1.21,0,0,1-.29-.21.65.65,0,0,1-.21-.44.91.91,0,0,1-.07-.43,1,1,0,0,1,.14-.43L6,43.85c.14-.07.28-.22.43-.22l.86-.29Zm0,3.68v.57l-.5.22-.22-.51Z"/><path class="cls-1" d="M19.87,60.77V59.26l.15.14.86-1.94-1,.93v-.57l1.3-1.16.43.29-1.73,3.82Zm0-4.18v-.72l.07-.07.44.29Zm0-.72v.72L17.21,59.4V57.89l1.29-2.38-1.29,1.37v-.79l1.37-1.3.57.51-1.58,2.88,2.3-2.31Zm0,2-2.66,2.52v.07l.29.29L19,59.18l.79.65-.86,1.73.43.29.5-1.08V59.26l-.43-.36.43-.51v-.57Zm-2.66-2.67.86-.79L17.71,54l-.5.5v.65Zm0-1.58v0Zm0-.07v.07L16,54.65v-.58l.87-.86.36.29Zm0,1L16,55.58v.65l1.23-1.08V54.5Zm0,1.59v.79L16,58v-.72l1.23-1.22Zm0,1.8-1,1.8.36.29.65-.58V57.89Zm0,2.45v.07h-.07l.07-.07ZM16,52.42v-.15l.08.07Zm-1.58-1.3a.24.24,0,0,1,.07.14.29.29,0,0,1,.07.22v.22c-.07.07-.07.14-.14.21v.72a2.48,2.48,0,0,0,.58-.72A1.36,1.36,0,0,0,14.9,51a1.08,1.08,0,0,0-.5-.51v.65ZM16,52.27v.15l-1.44,1.22.8,1,.64-.58v.58L14.4,56.09v-.65l.58-.5-.58-.65V53.06L15.7,52l.28.29Zm0,3.31L14.4,57v.65L16,56.23v-.65Zm0,1.73V58l-.79.87-.43-.44Zm-2.66-6.12c.07,0,.07,0,.14-.07A3.18,3.18,0,0,1,14,51a.56.56,0,0,1,.36.07.07.07,0,0,1,.07.07v-.65H14a2.37,2.37,0,0,0-.65.15v.57Zm1.08.72a.07.07,0,0,1-.07.07c-.07.15-.22.22-.36.36l.21.44c.08-.08.15-.15.22-.15v-.72Zm0,1.15v1.23l-.29-.36-.79.65v-.65l1.08-.87Zm0,2.38v.65L13.32,57v-.64l1.08-.94Zm0,1.58v.65l-.29.29-.36-.36Zm-2.3-3.38a4.31,4.31,0,0,1-.51.29.8.8,0,0,1-.36.07c-.07,0-.14-.07-.21-.07s-.08-.15-.15-.22-.07-.14-.07-.29a1.33,1.33,0,0,1,.14-.36,2.65,2.65,0,0,1,.36-.43,8.18,8.18,0,0,1,2-1.44v-.57a7.51,7.51,0,0,0-2.81,2.23,1.13,1.13,0,0,0,0,1.15.78.78,0,0,0,.72.5,2.06,2.06,0,0,0,1.08-.43l-.21-.43Zm1.22.29v.65L12,55.73l-.36-.43,1.73-1.37Zm0,2.45V57l-.07.08-.36-.36Z"/><path class="cls-1" d="M39.17,54.79l.43,1.73.22-.07.07.21-.29.08.22.79H39.6l-.22-.72-.43.07v-.22l.36-.14L39,55.22l-.07.22v-.36l.07-.29ZM39,56.88l-.43.14-.07-.28.5-1.66v.36l-.36,1.3.36-.08Z"/><path class="cls-1" d="M31,55.51c0-.14,0-.29-.14-.29H30.6v-.07a3,3,0,0,0,.86-.21l-.57,2.3c-.07.07,0,.22.29.22l-.08.14-1-.29v-.07c.28.07.43,0,.43-.07Z"/><path class="cls-1" d="M33.55,57.31a2.39,2.39,0,0,0,.36-.79,1.31,1.31,0,0,0-.29.14.07.07,0,0,0-.07.08v-.22h0a.28.28,0,0,0,.22-.07.15.15,0,0,0,.14-.15v-.36a1.44,1.44,0,0,0-.07-.5c-.07-.14-.14-.22-.29-.22V55h.07c.65,0,1,1.87-.07,2.52Zm-.57.43v-.07a1.09,1.09,0,0,0,.5-.29.07.07,0,0,1,.07-.07v.22a.82.82,0,0,1-.57.21Zm.57-1h-.21c-.08,0-.22-.15-.29-.29a1.1,1.1,0,0,1,.07-1.15.44.44,0,0,1,.43-.29v.21h-.07c-.22,0-.29.22-.29.58s-.07.79.36.72Z"/><path class="cls-1" d="M35.78,55.66a.55.55,0,0,1,.15-.36c.57-.8,1.51.28.65.93,1.15.51.07,2-.65,1.44-.15-.07-.15-.14-.07-.21.07-.29.28-.15.36.07a.6.6,0,0,0,.43-1,.86.86,0,0,0-.51-.14V56.3c.15,0,.22-.07.36-.21a.52.52,0,0,0,.15-.36.5.5,0,0,0-.15-.36c0-.07-.14-.07-.21-.07s-.22,0-.29.07-.07.14-.07.29Z"/><path class="cls-1" d="M300.1,10.51a1.65,1.65,0,0,0,0-1V5.9c2.44-.07,3.38.94,4.6,2.52-.28,1.95-2,2.67-3.09,3.89-.51.51-.79,1.15-1.3,1.59l-.21.21v-3.6Zm0,6v3.38a2.59,2.59,0,0,1,.36.22c.79.5.28,2.09.07,2.74h-.43v3.16c0-.07.07-.07.07-.14a3.13,3.13,0,0,0,.14-.79c.29-.36.72-.51,1-.87.22-.14.07-.5.29-.79s.5-.43.65-.72.28-1,.43-1.22.43-.43.5-.65c.36-.94-1.22-1.44-1-2.16.15-.36.8-.5,1-1,1.37,0,1.8-.93,3.1-.65.14.08.14.15.21.22.08,1.51-1.15,2.45-1.8,3.46-.14.28-.14.72-.36.93s-.43.15-.57.36a4.27,4.27,0,0,1-.43.94c-.22.29-.58.43-.8.72s-.28,1.08-.72,1.44v.14c-.14.51-.21,1.51-.57,1.87s-.65.15-.94.29c-.07.07-.14.15-.21.15v2.08a3.11,3.11,0,0,1,.93.08v.57a4.57,4.57,0,0,1-.93,1.15v1.88a3.85,3.85,0,0,1,.43-.65.68.68,0,0,0,.36-.07c.29-.15.43-.58.72-.8a9.29,9.29,0,0,1,1.15-.72c.14-.14.29-.36.43-.5.36-.22.65-.22,1-.43a3.28,3.28,0,0,0,.43-.51c.15-.07.36-.07.51-.14.36-.29.5-.72.86-1,0-2.09-1.3-2.59-2.74-3.38a12.48,12.48,0,0,1,.58-1.37c.14-.22.5-.22.65-.5s0-.58.21-.8c.51-.43,1.16-.64,1.52-1.15V21c.28-.36.86-.57,1.15-.93V19.8c.21-.29.57-.14.79-.36s.5-.79.79-1.08,1-.36,1.3-.79c.93-1.3-.43-3.1-1.15-3.67-1.16-1-1.88.07-2.67.36a4.26,4.26,0,0,0-1,.28c-1,.44-3.09,2.81-4.68,2.45-.28-.07-.43-.29-.64-.43Zm0,18.5a1.1,1.1,0,0,1,.43-.21c.29-.07.57-.07.93-.15,2-.79,3.1.72,3.46,2.24-.14.07-.29.28-.43.36h-.72c-.29.14-.65.43-.94.57s-.79,0-1,.15c.08.28-.93.93-1.29.93v-.07a1.75,1.75,0,0,1-.43-.36h0v-.29c0-.14.07-.21,0-.29V35.06Zm0,8.57c.07.07.14.22.21.29.29.58-.07,3.38-.21,4Zm-1-18.5c-.79-.07-1.23-.51-2-.29a1.21,1.21,0,0,1-.43.79V20.74a3.56,3.56,0,0,0,1.44-1.23.43.43,0,0,1-.07-.29,6.2,6.2,0,0,0-1.37-.57V15.91a.39.39,0,0,0,.29-.14c.36-.29.43-.94.72-1.37a41.88,41.88,0,0,1,2.45-3.82v3.53c-.65.51-1.52,1-1.52,1.95.15.07.15.21.22.28l1.3.22h0v3.38h-.22c-.14.22-.36.22-.43.36a3.94,3.94,0,0,0,.07,2.45c.07.22,0,.15.22.15a.33.33,0,0,0,.36,0v3.16c-.29.29-.72.65-1,.94a.25.25,0,0,0-.15-.07c-.14-.07-.21-.15-.21-.43a2.39,2.39,0,0,0,.36-1.37Zm1-15.63a12.37,12.37,0,0,0-.58-1.22s-.14-1.58-.14-1.87a.87.87,0,0,0,.5-.51h.22V9.5Zm0,23.84-.15.14c-.21.14-.29-.07-.43.14s0,0-.14.22c-.51.72-1.73.58-1.66,1.8h.22c.21.22,1.44-.29,2.16-.58v2.81h-1.37c-.07.15-.15.07-.15.29-.21.72.51,1.73.65,2.38s.07,1,.29,1.58c0,.07.22.22.29.29.14.36,0,.57.14.93a.35.35,0,0,0,.15.29V48.1c-.29,1,.14,2.08-.65,2.59-.58.57-2.16.36-2.81-.07h0v-3c.29-.21.72-.86.86-.79a10.34,10.34,0,0,1,.36-2c.22-.72-.21-1.08-.36-1.44V42c-.21-.65-.36-1.59-.57-2.16h-.29v-5a1.6,1.6,0,0,0,.65-.43c.36-.51.65-1,1.08-1.52a19.12,19.12,0,0,1,1.73-1.44v1.88Zm0,5.18v-.29c0,.07-.08.22,0,.29Zm0-8.86h-.29a5.78,5.78,0,0,1-.72.65h-.72c-.51.22-1.08.58-1.59.79,0,.08-.07.08-.14.08V29.52a.29.29,0,0,0,.22-.07c.5-.29,1-.79,1.58-1.08a1.92,1.92,0,0,0,.65-.15,5,5,0,0,0,1-.64Zm-3.46-4a2.51,2.51,0,0,1-1.37.72c-.07-.29-.21-.29-.21-.65a3.2,3.2,0,0,0,.64-1.51,1.91,1.91,0,0,0-1-.21c-.15.72-.8,1.08-1.23,1.51-.07.14-.21.29-.29.43V23.54h.15a1.9,1.9,0,0,0,.65-.64c-.15-.51-.29-.72-.72-.8a3,3,0,0,1,1.36-2.73,1,1,0,0,1-.07-.43,4.35,4.35,0,0,0-1.15-.22c-.07,0-.14.07-.22.07V17.35a1.42,1.42,0,0,0,.36-.21c.36-.08.72-.08,1.08-.15s.29-.36.51-.43a10.29,10.29,0,0,0,1.51-.65v2.74h-.43c-.29.65-.94,1.15-.94,2,.07.08.07.15.15.22a2.36,2.36,0,0,0,1.22-.14v4.89Zm0,25c-.22-.15-.36-.51-.65-.65a14.48,14.48,0,0,1-2.09-.79c-.14-.15-.5-.36-.72-.58v-.5a12.39,12.39,0,0,1,2.6-.51h.86v3Zm0-10.8c-1.66-.15-2.45.72-3.46,1.44V37.87c.08-.07.15-.07.15-.14.57-.36,2.3-.72,2.59-1.23.14-.28,0-.64.22-1.08a1,1,0,0,1,.5-.57v5Zm0-8.64c-.29.14-.58,0-.86.21s-.72,1-1.16,1.23h-1.29c0,.07-.07.07-.15.07V31.25a15.78,15.78,0,0,0,2.6-1.51c.28-.15.64-.08.86-.22Zm-3.46-5.26c-.57,1-1,2.66-2.66,2.45a5.54,5.54,0,0,0-.5-.87c-.15-.07-.22-.14-.36-.21-.44-.58-.51-1.59-.94-2.16a12.39,12.39,0,0,0-1-.94c-.07-.79,0-1.44,1-1.44a1.66,1.66,0,0,0,1.58.65c.08-.07.15-.07.22-.22.65-.86.07-2.44-.65-3.31,0-.29-.07-.65-.07-.93a2,2,0,0,0-.58-.29,5.4,5.4,0,0,1-.93-1.66.6.6,0,0,1,.14-.29c.29-.14.36-.28.72-.28.94.28,1.08,1.29,2,1.65.5.15,1.44-.36,2-.72v1.44c-.43.15-1-.07-1.36.65s1,4,1.15,4a.26.26,0,0,0,.21.07v2.38Zm0,22.68c-.14-.14-.21-.36,0-.5h0v.5Zm0-7.34a.07.07,0,0,0-.07.07c-.36.21-.79,0-1.15.36-1.15,1-4.82,2.81-7,2-.08-.28-.29-.5-.29-.86.21-.22.36-.58.57-.86a5.27,5.27,0,0,0,2.38-1.08c.36-.22.79-.08,1.08-.29a7.48,7.48,0,0,1,1.15-.94c.87-.5,1.95-.65,2.74-1.15a2.38,2.38,0,0,0,.57-.65v3.39Zm0-8.57c-.72.21-1.87.5-1.87-.58.65-.29,1.3-.57,1.87-.86Z"/><path class="cls-1" d="M100.15,3.6h.22c0-.07.07-.14.07-.22C100.66,3,101,3,101.66,3c.22.29,1.37.8,1.08,1.52a1.26,1.26,0,0,1-.14.93v.07a2,2,0,0,0,.07.72c0,.29-.29.58-.36.87a5.43,5.43,0,0,0,0,1.51H103l1.59-1.08c.28-.14.64-.07.86-.29s.5-.79.86-1,.58-.14.8-.36a7,7,0,0,0,.93-1.15l.58-.21a20.79,20.79,0,0,1,1.8-1.95c.86-.57,1.65-.07,2.3.43.22.15.58.15.65.36.58,1.08-1.87,1.88-2.3,2.24s-1.23.72-1.73,1.08c-.15.14-.22.28-.36.43-.58.29-1.44.36-2,.72-.21.14-.43.36-.65.5a3.61,3.61,0,0,1-.86.15,13.42,13.42,0,0,1-4,1.87A7.38,7.38,0,0,1,100.8,12c-.14.22-.07,1-.43,1.51v.94a6.42,6.42,0,0,0-.51,2.74c.22.07.22.14.51.14,1.44-.58,2.37-1.08,2.88-2.59.36,0,.36-.07.65-.22.43.15.79.72,1.58.51a16.13,16.13,0,0,0,2.59-3.17c.36-.87.29-1.44.94-2,.29.08.57.08.86.15s.36.43.58.65a12.93,12.93,0,0,1,0,1.65c.07.07.21.07.29.15.21-.22,2.37-1.3,3.24-.94a1.28,1.28,0,0,1,.79,1.08c-.65.43-1.66.79-2.31,1.3-.21.14-.64-.08-.93.07-.58.29-1.37.57-1.87.86-.36.07-.72.07-1.08.15a11.86,11.86,0,0,0-1.73.79C105.41,16.85,105,19,103.68,20c0,.64-.43,2-.22,2.44a1.08,1.08,0,0,0,.22.29c1.15,0,2-.86,2.81-1.22a15.45,15.45,0,0,0,1.58-.43,5.43,5.43,0,0,1,.94-.51c.29-.07.57-.07.86-.14.72-.51,1.59-1,2.31-1.51.28-.22,1.58,0,2.08,0,.08.21.51.43.65.5v.43l-.93.72a6.18,6.18,0,0,0-1.08.29,2,2,0,0,0-.65.43h-.43a12.92,12.92,0,0,1-1.52.51h-.64c-.8.43-1.8,1-2.67,1.36-1.29.51-3.24.58-4,1.59s-.5,3.53-.93,4.68v.93c.07.15.14.22.21.36.72,0,2.88-.5,3.31-.14a8.44,8.44,0,0,0,1.08.72c0,1.73-1.8,2-2.88,2.74h-.57a3.48,3.48,0,0,0-1.3.79c-.29.65.36,1.37.15,2.16a5.84,5.84,0,0,0,.21,2.73,18.51,18.51,0,0,1,.07,2.88,2.26,2.26,0,0,1-.07.72,2,2,0,0,1,.15,1.44c-.36,1.52.64,2.81-1.37,2.74a8.43,8.43,0,0,1-.87-1.58c-.28-.08-.36,0-.79.07a3.71,3.71,0,0,0-.29-.87c-.5-.64-.93-.64-.93-1.94,2.23-1.08,1.87-4.46,1.65-7a1.25,1.25,0,0,0-.36-.15c-1.08-.5-2.66,1.51-3,2.23a10.15,10.15,0,0,1-2.16-.14c-.14-.43-.57-.72-.86-1.08,0-2.66,3.67-3.24,5.33-4.46.57-.36,1.22-.29,1.51-.94V30.46c.21-1.23.86-4.83-.36-4.9-.15.14-.43-.07-.72.14a9,9,0,0,0-1.37.94h-.58c-.21.07-.28.36-.5.5s-.79.22-1.08.44c-.07.14-.22.28-.29.43-.29.14-.57.07-.79.21-.79.58-1.51,1.3-2.23,1.88h-.29a15,15,0,0,0-1.66,1.29c-.21.22-.14.65-.36.94a7,7,0,0,1-1.94,1.94c-.79.65-2.45.36-3.1.72,0,.22-.07.36-.07.51-.65.07-1.94-.22-2.16-.65a5,5,0,0,1-.72-1.51,2.36,2.36,0,0,0,.72-.44h.58c.14-.14.29-.5.5-.64h.43l.08-.29c.28-.15.57,0,.86-.15s.14-.36.22-.43c.36-.29,1.15-.14,1.58-.36.22-.14.43-.43.65-.57s.93-.15,1.22-.36c.07-.08.07-.29.15-.36s.79-.15,1-.22c.51-.22.94-.72,1.37-.94s.65-.07.94-.21a1.12,1.12,0,0,1,.29-.51c.14-.14.43-.07.64-.21.51-.29,1.08-.94,1.59-1.15,1.37-.65,2.73-.94,4-1.66.36-.29,1.37-.29,1.58-.65.44-.21.22-.65.36-1.15s1.16-3.89.94-4.46a1.38,1.38,0,0,0-.36-.29c-2.45.43-2.09,1.29-3.31,2.88-.36-.07-.43-.29-.72-.43-.36.07-.79.07-1.23.14a4.62,4.62,0,0,1-1.51,1.37c-.21.07-.79-.07-1.08,0-.21-.43-.72-.51-.79-1.15.58-.29,1.08-.94,1.58-1.23h.44a7.42,7.42,0,0,0,1.36-.65,9.16,9.16,0,0,1,1-.57c.58-1.23.72-2.67,1.23-4,.14-.51,1.08-2.81.86-3.17,0-.07-.07-.14-.07-.22-.65.08-.94-.28-1.51-.28-.15-.51-.22-.44-.08-1a3.58,3.58,0,0,0,2-.51c0-.5.36-1.15,0-1.51s-1.3-.86-1.08-1.58a6.13,6.13,0,0,1,.43-1.51C99.36,4.46,100,4.18,100.15,3.6Z"/><path class="cls-1" d="M189.5,13.9v-.29c1.23-.43,3.17-3.6,4.54-2.95.65.36,1.3,2,1.94,2.23a1.37,1.37,0,0,0,.15.5c-.29.72-1.08,1.23-1.44,1.8v.43a28.77,28.77,0,0,1-2,2.88c-.07.36-.07.72-.14,1.08-.22.22-.36.44-.58.65a13.38,13.38,0,0,1-1.73,3.39c-.43.43-.36,1.22-.64,1.72-.58.87-1.59,1-2.16,1.8a16.23,16.23,0,0,0-.08,3.75c.08.07.15.07.22.14,1.37.29,1.94-.72,2.74.65.14.22.36.29.21.65-.07.14-.36.14-.43.29-.29.43-.14,1-.43,1.44-.15.14-.65.21-.79.43-.29.14-.29.5-.44.72l-.43.21a7.93,7.93,0,0,0-1.15,1.95c0,.29.29.5.36.72a5.6,5.6,0,0,0,1.08.07c.43-.14,2.95-1.44,3.31-.72a3.5,3.5,0,0,1,1.15,1.94c-.72.8-1.94.58-3,1h-1.22a6.45,6.45,0,0,1-2.52.79c-.22-.5-1.23-.21-1.51-.72-1.23-1,.86-3.24,1.15-4,.14-.43.36-1.36,0-1.72-.15-.08-.43,0-.58-.22a4.49,4.49,0,0,1-.86-1.15,6.8,6.8,0,0,1,1.44-1.15c.07-.72,0-1.95,0-2.74-.51-.14-1.08-1.08-1.37-1.51,0-1.87,2.23-2.38,2.16-4.39-.65-.22-1.15-.58-1.8-.87.07-.72,1.8-.79,2.3-1.44.51-1.15-.28-3,.72-3.45h.51c.21.28.36.21.36.79-.51.72-.29,1.44-.29,2.3.22.07.22.22.43.36h.51a9.13,9.13,0,0,1,1.65-2.37,25.39,25.39,0,0,0,1.66-3.39c.36-.65.93-.86.93-1.87-.14-.07-.28-.36-.36-.5-.64.07-1.29.07-1.94.14-.36,1-.79.5-1.51.94a8.92,8.92,0,0,0-1.23,1.15h-.28a18.45,18.45,0,0,0-2.6,1.8c-.36.29-1,1.22-1.51,1.15-.07.43-.5.72-.43,1.3,0,.43-.14,4.17-.58,4.53h-.64c-.15-.36-.44-.36-.58-.57V20.45c-.29-.22.07-1.08-.14-1.51s-.72-1.37-.15-1.73,1.08.43,1.44.65h.79c.22-.36.51-.36.8-.58s.5-.65.86-.94a1.34,1.34,0,0,0,.5-.14c.44-.29.8-.72,1.23-1s.72-.14,1-.36S188.78,13.9,189.5,13.9Z"/><path class="cls-1" d="M177.48,16.06a1.48,1.48,0,0,1,.79.21c.07.15.43.72.29,1.15a19.37,19.37,0,0,1-1.3,2.45l-.21,1.95a15.75,15.75,0,0,0-.58,4.68c.72.28.65.86,1.15,1.36.51,0,.51-.28.94-.36.07,0,.14.08.22.08a8.4,8.4,0,0,1-.87,3c-.07.07-.5.79-.36.86-.21.22-.5.43-.79.72a1.85,1.85,0,0,1-.07.58c-.07.21-.36.43-.51.65s-.07.86-.21,1.22c-.43.86-.87,1-.79,2.23-.29.22-.29.43-.51.72-.65.87-1.51,1.08-3.09,1a2.67,2.67,0,0,1-.65-1.08c-.07-.58.43-1,.65-1.37s.07-.5.21-.79c.51-.86,2.09-3.24,2.09-4.25a5.17,5.17,0,0,0-1.37-.43,2.77,2.77,0,0,1-1.51.29c-.14-.36-.43-.36-.43-.87.86-1.36,3-1.65,3.81-3,.51-.79-.21-2.23.22-3.38a10.52,10.52,0,0,0,.07-2.6c-.07-.43-.65-.36-1.15-.28-.94.5-2.66.28-3-.72.93-.94,2.37-1.23,3.45-1.95.29-.21.58-.65.94-.79A9.22,9.22,0,0,0,177.48,16.06Z"/><path class="cls-1" d="M218.81,22.75c-.07-.57-1.23-3-.65-3.31.07-.07.22-.22.29-.22.36-.28.93.22,1.15.22a12.46,12.46,0,0,0,2.81-.22c.65-.14,1.22-.36,2.09-.5,1.08-.14,2.44,0,3.45-.22.43-.14.72.15,1,.08a4,4,0,0,0,.94-.08c.57.29,1.65,1.16,1.72,1.8-.36.36-.21,1.3-.5,1.59a6.88,6.88,0,0,1-1.15.93c-.22.36-.43.72-.65,1a31.8,31.8,0,0,0-2.66,2.81c-.29.29-.8.43-1.08.79-.08.15,0,.36-.15.58a8,8,0,0,1-.72.36c-.07.21-.14.36-.21.57s-.36.08-.51.15c-.43.29-.5,1.37-.43,1.8a2.45,2.45,0,0,0,1.51.14c.36-.14,1.8-1.15,2.31-.29.79.29.64,1.3.36,1.88a15.24,15.24,0,0,0-2.6.86h-1.08c-1,.29-2.3.29-3.31.65a16.52,16.52,0,0,0-1.37,1c-.36.14-.72.07-1.08.28s-1.08.8-1.65,1.08c-.29.15-.58,0-.79.15a2,2,0,0,0-.36.5c-.22.15-.51.22-.72.36s-.29.43-.44.65-1.15.5-1.44.72c-.57-.36-1.29-.14-2-.22-.29-1-.94-.43-1.59-.64A12.83,12.83,0,0,1,208,36.65v-.94a3.51,3.51,0,0,1,1.65-.72c.08,0,.58.22.8.15a41.61,41.61,0,0,1,4-1.37c.5-.22,1.37-.72,1.65-.87a5,5,0,0,1,1-.14,8.45,8.45,0,0,0,2.09-1.22,20.13,20.13,0,0,0,1.3-2.45,28.08,28.08,0,0,1,2.88-3c.07-.21.14-.43.21-.72.65-.72,3.17-2.73,3.17-3.81-.43-.15-.72-.43-1.3-.36-.14.14-1.29.07-1.87.21-.79.29-3.38,2.09-4.25,1.73a.54.54,0,0,1-.21-.14A1.41,1.41,0,0,1,218.81,22.75Z"/><path class="cls-1" d="M259,12.89a3.6,3.6,0,0,1,1.44.57c.22.15.29.65.51.8.57.36,1.15.36,1.51.93a4.94,4.94,0,0,1-.36,2.23,3.75,3.75,0,0,0,.07,2c.07.14-.07.58-.07.86a2.65,2.65,0,0,0,1.44.29h.07c.22.22.51.22.58.72.21.22-.15,1.3-.29,1.44a10.19,10.19,0,0,1-2.59,1.66,4.59,4.59,0,0,0-1,1.29,5.76,5.76,0,0,1-.29.94c-.07.14-.43.22-.5.36a5,5,0,0,0-.15,1c-.36.57-.86,1.29-1.29,1.87s-.29,1.51-.65,2.09l-1.22,1.22c-.22.07-.36.07-.58.15-.65.43-.86,1.44-1.51,1.94a4.32,4.32,0,0,0-.79.29c-.08.07-.08.14-.15.21h-.43c-.22.22-.43.72-.72.87s-.5.07-.79.29c-.94.64-2.31,2.16-3.53,2.16-.22.79-.86.5-1.44.93a12.39,12.39,0,0,1-.94,1c-.21.14-.57.14-.72.29a9.42,9.42,0,0,1-1.44,1.51h-.93a3.77,3.77,0,0,1-.29-.36v-.22c.58-.43,1.08-1.08,1.66-1.51a10.34,10.34,0,0,1,1.51-.93c.14-.15.21-.51.36-.58s.36-.07.57-.14.65-.58.94-.8h.43c.22-.14.36-.57.58-.72a1.05,1.05,0,0,0,.5-.14c.29-.14.43-.65.72-.79a3.34,3.34,0,0,0,.94-.72c.14-.15.14-.43.36-.51,1.87-1.15,4.68-3.31,5-6l-.08-.07a3,3,0,0,0-1.29.36,3.54,3.54,0,0,1-3.53-.51c-.43-.36-.79-.21-.86-1-.58-.86,1.8-1.72,2.37-2,.43-.07.87-.22,1.37-.29s.72-.58,1.15-.79a19.43,19.43,0,0,0,1.87-.72c.29-.22.36-.72.65-.94s.79-.21.94-.57V21a24.84,24.84,0,0,0,.36-3.38c-.07,0-.36-3.39-.36-3.39a7.7,7.7,0,0,0,.5-1.15C258.84,13,258.84,13,259,12.89Z"/><path class="cls-1" d="M260.14,29.88c.36,0,.57-.07.72.22.28.14.28.43.5.64.43.36.94.72,1.3,1.08.14.44.36.87.5,1.23a6.46,6.46,0,0,0,.72.57c.07.08,0,.22.07.29,1,.72,2.23,1.3,3.24,2,.22.21.51,0,.79.14a6.66,6.66,0,0,1,1.37,1c0,.5,0,.94-.29,1.08-.5.43-2.16-.22-2.52-.22s-.43.29-.64.36a3.88,3.88,0,0,1-2,.15c-.29-.79-.79-1-1.22-1.51a17.13,17.13,0,0,1-.72-2.09C261.43,33.41,259.7,31.61,260.14,29.88Z"/><path class="cls-1" d="M130.39,22.61c.07.14-.65-.79-1-.94s-.28-.36-.5-.72-.86-.21-.86-1.22c.28-.15.36-.36.64-.51,1-.28,2,.15,2.81-.28h.43a4.66,4.66,0,0,1,1.37-.65h.65c1.51-.94,3.38-1.44,4.68-2.38h.58a14.53,14.53,0,0,0,2.3-1.51c.29-.43.22-1.15.43-1.73a7.19,7.19,0,0,0,.58-4.32c.21-.14.21-.43.5-.57.15.43,1.59,1.08,1.95,1.51a5.44,5.44,0,0,0,.28,1A8.84,8.84,0,0,0,146.3,12a16.49,16.49,0,0,0,2.16-.43,1.42,1.42,0,0,0,.44.5v.58c-1,.58-.87,1.87-1.66,2.45a10,10,0,0,1-1.87,1.08c-.36.21-.79.14-1.15.43s-1.16,1.8-1.44,2.23a1.92,1.92,0,0,0-.15.65c-1,1.3-3.45,3-3.45,5l.21.22a3.82,3.82,0,0,0,2.52-.94c.15-.14.22-.43.29-.43.29-.15.58,0,.79-.15,1.87-1.22,3.6-2.52,5.62-3.6a25.18,25.18,0,0,0,2.16-1.94,2.15,2.15,0,0,0,.29-.5,7.45,7.45,0,0,1,4.39-1.08c.29.43.65.64.57,1.36-.93.87-.86,2.67-1.36,3.68v1c-1.37,4.11-1.52,9.36-2.38,13.9,0,.29.07.58.07.79-.21,1.23-.14,2.23-.36,3.1s.15,2.23-.36,3a1.44,1.44,0,0,1-1.15.5A6.73,6.73,0,0,0,148.1,41c-.36-.22-.5-.72-.86-1s-1.37-.57-1.58-.93-.15-.58-.36-.8a3.4,3.4,0,0,0-.51-.5v-.36l.29-.29h.58c.43.65,1.08.72,1.72,1.15.36.22.65.72,1.08.94h.94c1.44-1.8,1-5.9,1.51-8.5a10.83,10.83,0,0,1-.07-1.51,1.25,1.25,0,0,0,.14-.79v-.86a10.42,10.42,0,0,1,.8-1.52v-.57c.28-.87.36-2,.72-2.95.14-.36.5-.8.64-1.16.08-.57.22-1.22.29-1.87a6.42,6.42,0,0,0,.43-1.8h-.21c-.22-.21-1.23,0-1.51.15-1.16.5-2.09,2.08-3.1,2.44-.07,1,.65,1.3.65,2.31-.58.29-.87,1.15-1.44,1.51-.79.5-1.87,0-2.74.36-.14.07-.21.29-.36.36a9.23,9.23,0,0,0-1.37.5c0,.08-.07.29-.07.36-.29,0-.5.08-.72.08a14.77,14.77,0,0,0-2.3,1.94,3.06,3.06,0,0,0-1.95-.86,7,7,0,0,1-2.37,2.23c-.29.07-.43-.15-.51-.15-1.15-.28-1.15.36-1.94-.57-.14-.22-.22,0-.29-.43.29-.08.43-.36.72-.51.58-.29,1.3-.43,1.87-.72s1.08-.07,1.44-.36c.65-.57-.14-1.58.15-2.52.29-1.15,1.51-2.73,1.51-3.81-.29-.08-.5-.29-.72-.36-.43-.22-.72.21-.94.36a3.71,3.71,0,0,0-.93.14c-.15.07-.22.36-.29.43-.22.15-.5,0-.72.15-1.51,1-1.8,1.22-1.8,1.22a5.18,5.18,0,0,1-.5.22c-.08,0-.15.07-.29.14s-.43.43-.43.36-.36.29-.29.14c-.07.08-.51.15-.58.22s-.79,0-.79,0A1.05,1.05,0,0,1,130.39,22.61Z"/><path class="cls-1" d="M143.64,28.58a1.68,1.68,0,0,1,1.51,1.3c-.29.29-.43.65-.72.86a9.28,9.28,0,0,1-2.81.36,2.6,2.6,0,0,1-.36-.5c-.79-.43-1.51-.07-1.65-1.37a5.39,5.39,0,0,1,2.3-.29C142.2,28.44,143.28,28.94,143.64,28.58Z"/><path class="cls-1" d="M132,29.45c.5.14.36.29.57.65a4.22,4.22,0,0,1,.87,2.08v.72c.79,1.88.72,6-.8,7.13h-.72c-.36-.5-.86-.79-1.29-1.37-.51-.79.72-4.6,1-5.32.43-1.08-.58-3.32.14-3.68C131.83,29.45,131.83,29.52,132,29.45Z"/><path class="cls-1" d="M144.94,31.82a3.22,3.22,0,0,1,.93.15c0,1.51-2,2.3-2.59,3.31v.65c-.07.07-.29.21-.29.29,0,.28.07.57.07.86a1.63,1.63,0,0,1-.21.36c-.51,1.37.93,2.81-.22,3.46-.43.14-.65,0-1.08-.08-2.09-.36-1.51-2.08-1.44-4-.21-.07-.21-.14-.5-.14a2.59,2.59,0,0,0-.72.29c-.29-.29-.79-.65-.87-1.16.29-.07.44-.28.65-.36h.87a4.22,4.22,0,0,0,.86-.72c.29-.57-.14-1.51.43-1.8.07-.21.29-.28.65-.28a2.54,2.54,0,0,0,1.8.86C143.64,32.9,144.58,32.54,144.94,31.82Z"/><path class="cls-1" d="M301.68,69.41V68.9h.07a1.6,1.6,0,0,0,1.51-1.36c0-.8-.5-1.23-1.58-1.23V65.23h1.22c1.16.07,1.73.58,1.73,1.51-.07,1.59-1.08,2.45-2.95,2.67Zm0-5.26v-.43c.5-.07.72-.65.72-1.73,0-.86-.29-1.29-.72-1.37v-.43h.14a1.64,1.64,0,0,1,.65.07h2.09v.51h-1.08a1.62,1.62,0,0,1,.58,1.37c0,1.22-.87,1.94-2.38,2Zm5,5.19,1.58-3.1-2.52-6a3.74,3.74,0,0,0,.94.08,4.31,4.31,0,0,0,1-.08c.21.72.57,1.73,1,3,.22.36.29.65.44.86l.43-1.29c.36-.87.65-1.73,1-2.6a.81.81,0,0,0,.43.08,1.41,1.41,0,0,0,.57-.08l-1.29,2.88c-1.08,2.45-1.95,4.47-2.52,6.2h-1.08Zm-5-9.15v.43h-.07c-.58,0-.87.58-.79,1.66s.21,1.44.79,1.44h.07v.43h-.29c-.29,0-.43,0-.43.07s-.07.08-.07.15-.15.14-.07.21c-.08.44.21.65.86.65v1.08h-.22c-.79-.07-1.22.22-1.36.72,0,.15-.08.29,0,.43,0,.87.57,1.3,1.58,1.44v.51h-.22c-1.65-.07-2.44-.65-2.52-1.66a1.33,1.33,0,0,1,1-1.37l.22-.14h-.07a.83.83,0,0,1-.65-.86,1.46,1.46,0,0,1,.93-1.3h.22a1.78,1.78,0,0,1-1.51-2c-.07-1.22.79-1.87,2.59-1.87Zm-7.13,6.12v-.5c.72,0,1.08-1,1.15-2.88,0-1.44-.43-2.16-1.15-2.23h0v-.51a2.86,2.86,0,0,1,3,3C297.43,65.16,296.42,66.24,294.55,66.31Zm0-6.12v.51c-.86.07-1.22.93-1.22,2.66s.36,2.45,1.22,2.45v.5c-2-.07-3-1-3.09-2.88.07-2.09,1.08-3.17,3.09-3.24Zm-11.66,6.12v-.5c.72,0,1.15-1,1.15-2.88,0-1.44-.36-2.16-1.15-2.23h0v-.51a2.81,2.81,0,0,1,3,3,2.91,2.91,0,0,1-3,3.17Zm6.62-9.43v9.36h-1.65V56.88a2.46,2.46,0,0,0,.43.07h.79C289.22,57,289.44,56.88,289.51,56.88Zm-6.62,3.31v.51c-.87.07-1.23.93-1.23,2.66s.36,2.45,1.23,2.45v.5c-2-.07-3-1-3.1-2.88.07-2.09,1.08-3.17,3.1-3.24ZM253.8,66.31v-.86a2.65,2.65,0,0,0,.79.14A2.26,2.26,0,0,0,256,65l.15.14-.22.65a4,4,0,0,1-1.8.5Zm0-3v-.58h.94c-.08-1.29-.29-1.94-.87-2h-.07v-.51h.07c1.8.07,2.67,1.08,2.52,3.1Zm9.65-2.59L262.94,62h-.28a1.52,1.52,0,0,0-1.3-1.29c-.94.07-1.44.93-1.51,2.44s.65,2.45,1.87,2.45A1.81,1.81,0,0,0,263,65l.21.14-.29.79a6,6,0,0,1-1.65.36c-2.09-.07-3.17-1-3.24-3a3.08,3.08,0,0,1,3.24-3.17,4.78,4.78,0,0,1,2.16.51Zm3.24-3.82v4.25a2.73,2.73,0,0,1,1.87-.94,2,2,0,0,1,1.44.58,1.92,1.92,0,0,1,.5,1.51v4h-1.65v-3c0-1.37-.29-2-1-2s-1.22.72-1.15,2.23v2.81H265V56.88a2.66,2.66,0,0,0,.43.07h.87a3.29,3.29,0,0,0,.36-.07Zm5.9,9.36v-6a2.46,2.46,0,0,0,.79.08,2.72,2.72,0,0,0,.8-.08v.94a2.58,2.58,0,0,1,1.94-1c1.37,0,2,.79,1.94,2.45v3.6h-1.65v-3c0-1.37-.36-2-1-2-.86,0-1.22.72-1.15,2.23v2.81h-1.66Zm-18.79-6v.51c-.58.14-.94.79-.94,2h.94v.58h-.94c0,1.15.29,1.87.94,2.16v.86a2.81,2.81,0,0,1-2.74-3.17c.08-1.87.94-2.8,2.74-3Zm-22.1,6.12v-.5c.72,0,1.08-1,1.15-2.88,0-1.44-.36-2.16-1.15-2.23h0v-.51a2.81,2.81,0,0,1,3,3,2.91,2.91,0,0,1-3,3.17Zm5.11-5.18h-.94a1.83,1.83,0,0,0,0-.87h.94a4.39,4.39,0,0,1,.65-2,2.17,2.17,0,0,1,2.59-1.3,3.67,3.67,0,0,0-.07,1.59l-.22.07a2.74,2.74,0,0,0-1-.36,1.18,1.18,0,0,0-.72.14c-.07.07-.14.15-.14.22a4.07,4.07,0,0,0,.57,1.65h1.23a1.83,1.83,0,0,0,0,.87h-1.15v5.11h-1.73V61.13Zm10.65-2.45v7.56h-1.8V58.68c-.5,0-1.15.07-1.94.14h-.43a1.82,1.82,0,0,0,0-1h6.41a1.6,1.6,0,0,0,0,1,2.26,2.26,0,0,1-.72-.07C248.33,58.75,247.82,58.68,247.46,58.68ZM231.7,60.19v.51c-.87.07-1.23.93-1.23,2.66s.36,2.45,1.23,2.45v.5c-2-.07-3-1-3.1-2.88.07-2.09,1.08-3.17,3.1-3.24Zm-36.58,6.12v-.86a2.65,2.65,0,0,0,.79.14,2.26,2.26,0,0,0,1.44-.57l.15.14-.29.65a3.46,3.46,0,0,1-1.73.5Zm0-3v-.58h.94c-.08-1.29-.36-1.94-.87-2h-.07v-.51h.07c1.8.07,2.67,1.08,2.52,3.1Zm4.46,2.95v-6a3.74,3.74,0,0,0,.94.08,2.66,2.66,0,0,0,.79-.08v1.59a1.94,1.94,0,0,1,2-1.66,13.73,13.73,0,0,0-.07,1.66l-.08.14a1.16,1.16,0,0,0-.64-.21,1.06,1.06,0,0,0-1.16.79,4.59,4.59,0,0,0-.07,1.51v2.16h-1.73Zm5.26-1.51h.29a1.51,1.51,0,0,0,1.44,1.08.94.94,0,0,0,.93-.79c0-.36-.36-.65-1.15-.94-1.15-.43-1.73-1.08-1.73-1.94q.12-1.85,2.16-2a3.14,3.14,0,0,1,1.8.58,6.14,6.14,0,0,0-.28,1.08h-.36a1.23,1.23,0,0,0-1.23-1c-.57,0-.86.22-.86.72s.36.65,1.08.86c1.22.51,1.8,1.16,1.8,2-.07,1.15-.87,1.8-2.38,1.87a3.24,3.24,0,0,1-1.73-.43,3.8,3.8,0,0,1,.15-.58c0-.21.07-.43.07-.57Zm5.76,1.51v-6a3.17,3.17,0,0,0,.86.08,3,3,0,0,0,.8-.08v6H210.6ZM210.46,58a1,1,0,0,1,.93-1c.65.15,1,.44,1,1s-.36.87-1,.94a.87.87,0,0,1-.93-.94Zm6.12,3.1v3.45c-.15,1,.28,1.37,1.15,1.08v.44c-.07.07-.22.07-.43.14a5.12,5.12,0,0,1-.87.07c-1.08.07-1.58-.57-1.51-1.94V61.13h-.86v-.87h.86V58.9a12.37,12.37,0,0,0,1.66-.8v2.16h1.08a1.61,1.61,0,0,0,0,.87Zm3.24,8.21,1.58-3.1-2.52-6a3.47,3.47,0,0,0,.94.08,3.7,3.7,0,0,0,.93-.08q.33,1.08,1.08,3c.15.36.29.65.36.86l.51-1.29c.28-.87.64-1.73.93-2.6a1.3,1.3,0,0,0,.51.08,1.1,1.1,0,0,0,.5-.08l-1.22,2.88a58.23,58.23,0,0,0-2.6,6.2h-1Zm-24.7-9.15v.51c-.65.14-.94.79-.94,2h.94v.58h-.94c0,1.15.29,1.87.94,2.16v.86a2.81,2.81,0,0,1-2.74-3.17c.08-1.87.94-2.8,2.74-3Zm-38.74,6v-.58c.44-.07.72-.5.8-1.37V63a.59.59,0,0,1-.36.14,1.46,1.46,0,0,0-.44.22v-.5a5.19,5.19,0,0,0,.58-.29.69.69,0,0,0,.22-.51,1.27,1.27,0,0,0-.8-1v-.87h.15c1.51.07,2.3.65,2.3,1.66v3.38c0,.36.22.58.65.58v.29c-.07,0-.14.07-.22.07a7.22,7.22,0,0,1-.86.14,1.19,1.19,0,0,1-1.22-.79,2.35,2.35,0,0,1-.8.65Zm7.85-3.31v-5a1.28,1.28,0,0,1,.43.07h.94a1.08,1.08,0,0,1,.43-.07v3.45a9.28,9.28,0,0,0,.15,2.38,2.07,2.07,0,0,0,.64,1.44,1.87,1.87,0,0,0,1.44.5,2.05,2.05,0,0,0,2.16-1.51,8.58,8.58,0,0,0,.22-2.52V57.82h.94v4.39c.14,1.87-.29,3-1.3,3.6a5.69,5.69,0,0,1-2.3.57c-2-.07-3.24-.72-3.53-2a4.62,4.62,0,0,1-.22-1.51Zm9.87,3.38v-6a2.4,2.4,0,0,0,.79.08,3.14,3.14,0,0,0,.86-.08v.94a2.36,2.36,0,0,1,1.87-1c1.37,0,2,.79,1.95,2.45v3.6h-1.66v-3c0-1.37-.29-2-1-2s-1.22.72-1.15,2.23v2.81H174.1Zm7.7,0v-6a3.17,3.17,0,0,0,.86.08,3.76,3.76,0,0,0,.87-.08v6H181.8ZM181.66,58a1.09,1.09,0,0,1,1-1,1.16,1.16,0,0,1,1,1,1,1,0,0,1-1,.94.92.92,0,0,1-1-.94Zm5.54,2.23,1.37,4.32c.5-1.36,1-2.8,1.44-4.32a1.41,1.41,0,0,0,.57.08.86.86,0,0,0,.44-.08c0,.15,0,.22-.08.29h0c-.21.51-.43,1-.64,1.44a3.13,3.13,0,0,1-.22.58,33.05,33.05,0,0,0-1.37,3.67h-1.29a6.27,6.27,0,0,1-.22-.72c-.79-2.23-1.44-4-1.94-5.26a3.62,3.62,0,0,0,.93.08A4.61,4.61,0,0,0,187.2,60.26Zm-30.82-.07v.87A.81.81,0,0,0,156,61a2.16,2.16,0,0,0-1.51.72h-.07l-.15-.72a3.92,3.92,0,0,1,2.16-.79Zm0,2.67v.5a1,1,0,0,0-.43.22,1.16,1.16,0,0,0-.43,1c0,.65.22,1,.72,1h.14v.58a3,3,0,0,1-.79.14c-1.15-.07-1.8-.57-1.8-1.51s.65-1.66,2.31-1.94h.28Zm-57.6,3.45v-.5c.72,0,1.08-1,1.16-2.88,0-1.44-.36-2.16-1.16-2.23h0v-.51a2.86,2.86,0,0,1,3,3c-.15,2-1.15,3.1-3,3.17ZM109,60.26v6h-1.66v-.86a2.28,2.28,0,0,1-1.87.93,2.11,2.11,0,0,1-1.66-.65,3.08,3.08,0,0,1-.36-1.72V60.26a3.47,3.47,0,0,0,.94.08,2.9,2.9,0,0,0,.79-.08v3.46a3.12,3.12,0,0,0,.15,1,1,1,0,0,0,.86.65c.79,0,1.15-.58,1.08-1.88V60.26a3.17,3.17,0,0,0,.86.08,3.21,3.21,0,0,0,.87-.08Zm4.17.87v3.45c-.14,1,.22,1.37,1.16,1.08v.44c-.15.07-.29.07-.44.14a5,5,0,0,1-.86.07c-1.15.07-1.66-.57-1.58-1.94V61.13h-.87a1.83,1.83,0,0,0,0-.87h.87V58.9a17.58,17.58,0,0,0,1.72-.8v2.16h1v.87Zm4.4-4.25v4.25a2.59,2.59,0,0,1,1.8-.94,1.8,1.8,0,0,1,1.44.58,1.94,1.94,0,0,1,.57,1.51v4h-1.73v-3c.08-1.37-.28-2-1-2s-1.16.72-1.08,2.23v2.81h-1.73V56.88c.14,0,.29.07.43.07h.86a2.85,2.85,0,0,0,.44-.07Zm15.33,7.92.15.07L132.84,66a11.89,11.89,0,0,1-2.45.43q-4.42-.21-4.53-4.1c.07-3,1.65-4.54,4.82-4.68a5.64,5.64,0,0,1,2.52.58,2.4,2.4,0,0,0-.29.86v.43h-.21a2.81,2.81,0,0,0-2-1.15c-1.87.07-2.81,1.37-2.88,3.82.07,2.3,1,3.45,3,3.52a3.29,3.29,0,0,0,2.16-.86Zm3.75-7.92v4.25a2.73,2.73,0,0,1,1.87-.94,2,2,0,0,1,1.44.58,1.92,1.92,0,0,1,.5,1.51v4h-1.65v-3c0-1.37-.36-2-1-2-.87,0-1.23.72-1.15,2.23v2.81H135V56.88a2.66,2.66,0,0,0,.43.07h.87c.14,0,.28-.07.36-.07Zm6,9.36v-6a3.21,3.21,0,0,0,.87.08,3.72,3.72,0,0,0,.86-.08v6H142.7ZM142.56,58a1.09,1.09,0,0,1,1-1,1.18,1.18,0,0,1,1,1,1,1,0,0,1-1,.94.93.93,0,0,1-1-.94Zm4.1,8.21v-6a2.5,2.5,0,0,0,.8.08,2.69,2.69,0,0,0,.79-.08v.94a2.58,2.58,0,0,1,1.94-1c1.37,0,2,.79,1.95,2.45v3.6h-1.66v-3c0-1.37-.36-2-1-2-.86,0-1.22.72-1.15,2.23v2.81h-1.66ZM93.46,59.4h-.15a1.64,1.64,0,0,0-1.44-1.08c-.93,0-1.37.43-1.37,1.22,0,.51.51,1,1.52,1.52,1.44.72,2.23,1.65,2.23,2.66-.15,1.66-1.23,2.52-3.31,2.66A9.1,9.1,0,0,1,89,66a11.24,11.24,0,0,0,.36-1.58h.22a1.56,1.56,0,0,0,1.65,1.29c.94,0,1.44-.43,1.52-1.22,0-.58-.58-1.15-1.66-1.58a2.92,2.92,0,0,1-2-2.67c.08-1.65,1-2.52,2.81-2.59a3.72,3.72,0,0,1,2,.58,4.4,4.4,0,0,1-.29.57,3.87,3.87,0,0,0-.14.65Zm5.32.79v.51c-.86.07-1.22.93-1.22,2.66s.36,2.45,1.22,2.45v.5c-2-.07-3-1-3.09-2.88C95.76,61.34,96.77,60.26,98.78,60.19Z"/></g></g></svg>